<?xml version="1.0" standalone="no"?> <!DOCTYPE svg PUBLIC "-//W3C//DTD SVG 20010904//EN" "http://www.w3.org/TR/2001/REC-SVG-20010904/DTD/svg10.dtd"> <svg version="1.0" xmlns="http://www.w3.org/2000/svg" width="738.000000pt" height="188.000000pt" viewBox="0 0 738.000000 188.000000" preserveAspectRatio="xMidYMid meet"> <g transform="translate(0.000000,188.000000) scale(0.100000,-0.100000)" fill="#8692e9" stroke="none"> <path d="M1045 1833 c-19 -4 -85 -27 -195 -67 -62 -22 -218 -75 -255 -86 -49 -15 -148 -50 -170 -60 -11 -6 -38 -14 -60 -18 -40 -8 -40 -8 -43 -146 -3 -138 -3 -138 30 -131 18 4 44 13 58 21 26 14 80 34 160 60 25 8 54 18 65 24 19 9 68 27 150 55 22 8 71 25 109 39 38 15 71 24 73 22 6 -6 -17 -154 -27 -180 -4 -12 -26 -42 -48 -67 -54 -61 -126 -77 -237 -52 -72 15 -72 15 -136 -12 -109 -46 -153 -64 -176 -70 -35 -10 -31 -127 10 -350 57 -307 240 -548 537 -708 109 -58 103 -64 104 97 1 115 -1 139 -14 143 -8 2 -24 9 -35 16 -11 6 -31 16 -45 23 -62 33 -230 210 -230 243 0 4 -8 19 -19 32 -10 13 -21 34 -25 47 -7 22 -6 22 73 22 80 0 80 0 87 57 4 32 15 69 24 83 9 14 28 42 41 62 25 39 87 91 150 126 20 11 46 26 57 33 18 11 27 10 60 -9 22 -12 47 -22 55 -22 22 0 147 -126 179 -180 14 -25 29 -69 33 -99 7 -53 7 -53 76 -47 77 7 95 -6 69 -48 -8 -11 -20 -34 -29 -51 -52 -105 -252 -285 -317 -285 -11 0 -14 -25 -14 -140 0 -154 2 -159 60 -125 14 8 41 22 60 31 125 58 301 213 375 328 113 177 171 369 176 585 3 124 3 124 -21 134 -14 6 -43 18 -65 27 -176 76 -167 74 -245 55 -58 -14 -79 -15 -110 -6 -20 6 -45 11 -55 11 -25 0 -76 47 -103 94 -27 46 -48 186 -30 197 6 4 38 -4 72 -18 33 -13 79 -31 101 -38 22 -7 72 -25 110 -40 39 -14 91 -33 117 -41 26 -8 50 -19 53 -24 3 -6 15 -10 26 -10 11 0 36 -7 57 -17 64 -28 102 -41 105 -34 1 3 1 66 -1 139 -4 132 -4 132 -30 138 -15 3 -47 14 -72 24 -25 10 -81 29 -125 43 -44 15 -118 39 -165 55 -106 37 -167 57 -250 83 -36 12 -69 24 -75 28 -12 9 -61 11 -90 4z m119 -101 c-11 -11 -26 -22 -34 -25 -8 -4 8 -4 35 -1 61 8 55 8 83 -1 24 -8 28 -25 10 -43 -6 -6 -8 -15 -4 -19 4 -4 11 -1 16 7 7 11 11 12 25 0 12 -10 21 -10 41 -1 22 10 28 8 51 -15 14 -14 28 -22 31 -19 4 3 0 10 -8 15 -29 18 4 32 36 15 16 -8 35 -15 42 -15 6 0 12 -4 12 -9 0 -5 -6 -12 -12 -14 -7 -3 -3 -6 10 -6 12 -1 22 -6 22 -11 0 -6 22 -10 53 -9 64 1 100 -9 93 -27 -4 -10 3 -14 19 -14 16 0 25 -6 25 -15 0 -8 -7 -15 -15 -15 -8 0 -15 -4 -15 -10 0 -5 6 -10 14 -10 8 0 18 5 21 10 9 15 45 12 45 -3 0 -14 -40 -37 -65 -37 -8 0 -24 9 -35 20 -11 11 -33 20 -49 20 -44 0 -47 18 -4 23 38 4 38 4 1 5 -22 1 -43 -4 -52 -14 -9 -8 -20 -12 -26 -9 -15 9 -12 25 5 25 8 0 15 5 15 10 0 6 -7 10 -15 10 -8 0 -15 -4 -15 -10 0 -18 -22 -10 -27 10 -7 26 -17 25 -36 -2 -12 -17 -16 -19 -16 -7 -1 23 -32 47 -61 47 -14 0 -47 4 -74 10 -83 17 -156 -17 -156 -75 0 -21 -3 -24 -12 -15 -7 7 -16 12 -20 12 -13 0 -9 -28 5 -33 9 -3 9 -9 -1 -26 -7 -12 -8 -21 -2 -21 14 0 12 -27 -2 -34 -7 -3 -2 -3 10 0 21 5 23 3 17 -18 -10 -31 -35 -49 -59 -42 -21 6 -21 6 -2 -12 12 -12 34 -19 55 -19 33 0 36 -2 39 -32 3 -26 0 -33 -14 -33 -14 0 -15 -3 -6 -12 10 -10 16 -7 28 11 12 17 19 20 28 11 8 -8 6 -15 -9 -27 -19 -14 -18 -15 13 -11 19 3 32 0 32 -6 1 -6 9 -21 20 -34 16 -20 22 -21 45 -10 19 9 31 9 44 1 10 -6 48 -10 87 -8 47 2 62 0 47 -6 -13 -4 -23 -13 -23 -19 0 -5 -12 -10 -26 -10 -14 0 -23 -4 -20 -8 3 -5 38 -7 78 -6 75 2 128 20 120 42 -2 7 2 10 12 6 22 -8 20 -23 -6 -45 -16 -15 -18 -19 -5 -19 8 0 23 -3 32 -7 14 -5 16 -2 11 14 -6 17 -3 21 17 19 15 0 23 -6 20 -13 -3 -8 4 -13 19 -13 24 0 25 -2 23 -71 -2 -55 -8 -78 -24 -100 -22 -29 -22 -29 4 -39 29 -11 32 -22 10 -40 -9 -7 -13 -21 -9 -34 3 -14 -2 -28 -15 -40 -14 -13 -21 -31 -21 -56 0 -20 -6 -45 -14 -56 -8 -10 -12 -29 -9 -41 3 -15 1 -23 -7 -23 -8 0 -11 -10 -8 -29 3 -21 1 -28 -9 -24 -17 7 -73 -19 -73 -34 0 -21 18 -24 29 -6 20 35 11 -6 -11 -46 -14 -26 -29 -41 -41 -41 -13 0 -17 5 -13 15 7 18 -5 20 -22 3 -9 -9 -12 -5 -12 20 0 38 39 103 60 99 8 -1 16 6 18 15 2 12 -3 18 -13 18 -18 0 -16 21 3 28 7 2 15 -10 18 -27 4 -17 11 -31 16 -31 6 0 8 14 4 35 -4 22 -3 35 4 35 5 0 10 -7 10 -15 0 -8 7 -15 15 -15 20 0 19 36 0 44 -20 7 -37 51 -39 96 -1 28 -6 36 -25 38 -15 2 -26 14 -33 33 -8 22 -15 28 -28 24 -22 -7 -60 14 -60 32 0 7 -7 10 -16 6 -12 -5 -15 0 -12 23 2 21 -4 34 -19 47 -13 10 -23 24 -23 31 0 7 -8 21 -19 32 -10 11 -24 30 -30 43 -10 18 -18 21 -38 16 -20 -5 -24 -3 -20 9 3 8 -2 31 -12 52 -19 39 -35 28 -24 -18 5 -23 5 -23 -15 1 -11 13 -24 21 -31 17 -18 -11 -56 26 -53 51 3 19 -2 22 -30 21 -40 0 -88 -20 -113 -48 -10 -11 -28 -20 -40 -20 -13 0 -30 -11 -39 -25 -9 -14 -21 -25 -26 -25 -6 0 -29 -13 -52 -30 -24 -18 -34 -30 -25 -30 10 0 17 -4 17 -9 0 -16 -27 -31 -44 -25 -10 4 -16 1 -16 -8 0 -19 -28 -76 -42 -84 -6 -4 -14 0 -19 7 -5 8 -9 9 -9 3 0 -6 7 -17 15 -24 8 -7 15 -19 15 -26 0 -16 -36 -19 -45 -4 -13 21 -24 9 -18 -20 5 -29 5 -30 -21 -20 -22 8 -26 7 -26 -8 0 -10 -12 -28 -26 -41 -21 -18 -25 -29 -22 -63 1 -26 -2 -43 -10 -46 -22 -7 -13 -32 12 -32 26 0 51 -24 41 -40 -3 -5 -13 -10 -20 -10 -12 0 -12 -5 -3 -26 11 -24 13 -25 26 -7 13 17 13 16 10 -10 -2 -21 4 -33 22 -47 25 -20 25 -20 3 -26 -24 -7 -30 -19 -14 -29 6 -3 18 3 28 14 12 13 23 17 32 12 11 -7 10 -11 -5 -20 -14 -8 -15 -10 -4 -11 8 0 42 -28 75 -61 32 -34 61 -56 63 -49 2 6 -6 22 -18 35 -12 13 -17 26 -12 29 5 3 22 -10 36 -29 15 -19 32 -35 37 -35 18 0 45 -33 31 -38 -20 -6 -14 -29 11 -37 20 -6 20 -8 3 -12 -10 -3 -22 0 -26 7 -5 8 -18 10 -39 5 -29 -6 -32 -4 -37 24 -8 37 -20 47 -38 32 -16 -14 -26 -4 -26 26 0 16 -6 23 -20 23 -11 0 -20 -5 -20 -11 0 -8 -5 -7 -16 2 -14 12 -14 14 5 21 28 10 16 38 -16 38 -33 0 -86 49 -72 67 6 6 7 17 3 24 -5 8 -9 7 -16 -5 -11 -20 -28 -21 -28 -2 0 8 -7 16 -15 20 -8 3 -15 10 -15 16 0 5 7 10 15 10 16 0 21 25 6 34 -4 3 -11 19 -14 35 -4 19 -14 31 -29 34 -31 8 -53 59 -38 87 8 15 8 20 -2 20 -18 0 -38 34 -33 56 16 80 15 85 -5 79 -16 -5 -20 -2 -20 19 0 14 5 28 10 31 15 10 12 71 -5 85 -29 24 -19 74 22 104 31 21 39 23 41 11 2 -8 9 -15 17 -15 7 0 11 7 9 18 -6 25 11 46 31 38 14 -5 15 -9 6 -20 -8 -10 -9 -16 -1 -21 14 -8 32 4 24 16 -3 6 3 19 15 30 12 11 21 15 21 9 0 -17 39 -50 60 -50 13 0 20 7 20 19 0 27 15 34 40 21 15 -8 19 -17 14 -32 -4 -14 -2 -19 7 -16 7 2 16 15 19 29 6 24 60 42 60 20 0 -6 -7 -11 -15 -11 -13 0 -14 -4 -4 -22 8 -14 14 -18 17 -10 5 17 29 15 36 -3 3 -8 10 -15 16 -15 16 0 12 27 -5 34 -8 3 -15 12 -15 21 0 9 7 18 15 21 8 4 15 13 15 21 0 8 16 21 36 29 34 14 35 16 18 30 -18 15 -18 15 4 11 12 -3 22 -1 22 5 0 5 14 27 31 48 31 38 32 47 13 95 -7 20 -7 20 14 2 20 -18 21 -18 36 11 10 19 13 42 10 61 -8 38 -25 31 -21 -9 1 -16 -2 -28 -8 -27 -5 1 -10 14 -10 29 0 15 -8 36 -17 47 -10 12 -15 27 -12 34 6 16 -39 42 -55 33 -6 -4 -16 4 -23 18 -14 31 -24 33 -33 6 -7 -23 -33 -27 -41 -5 -9 21 -31 19 -37 -4 -3 -14 -11 -18 -24 -15 -11 3 -27 -1 -35 -10 -9 -8 -19 -12 -23 -8 -3 4 -11 -1 -16 -10 -5 -10 -17 -14 -29 -11 -22 6 -29 -22 -7 -30 16 -6 -33 3 -55 9 -10 3 -18 1 -18 -5 0 -6 5 -11 10 -11 6 0 10 -5 10 -11 0 -6 -8 -8 -19 -4 -10 3 -24 -1 -31 -10 -9 -11 -16 -12 -25 -5 -16 13 -66 3 -82 -17 -9 -12 -11 -5 -11 32 0 38 2 44 14 34 11 -9 15 -8 20 5 8 20 30 21 38 0 3 -8 10 -13 15 -9 6 3 8 12 5 19 -7 17 50 41 93 38 34 -3 45 14 18 25 -12 4 -10 9 11 19 32 17 76 18 92 2 9 -9 15 -9 24 0 10 10 10 15 -2 23 -13 9 -13 10 0 8 8 -1 28 1 44 6 22 6 31 4 38 -9 9 -15 12 -15 34 6 13 13 24 28 24 35 0 18 41 28 50 12 7 -10 12 -10 25 1 14 11 20 11 37 1 16 -10 22 -10 31 3 11 13 36 20 91 25 19 1 19 1 0 -17z m-729 -270 c-5 -19 -9 -21 -19 -13 -11 9 -12 19 -3 47 10 34 11 35 19 13 5 -13 6 -34 3 -47z m1165 -291 c0 -12 -46 -41 -65 -41 -24 0 -17 19 10 26 14 3 25 10 25 15 0 5 7 9 15 9 8 0 15 -4 15 -9z m-922 -668 c10 -18 9 -20 -8 -16 -20 5 -26 23 -13 36 7 8 7 9 21 -20z m838 -128 c-18 -19 -32 -20 -17 -1 9 11 6 17 -14 30 -14 9 -25 12 -25 6 0 -5 5 -10 10 -10 6 0 10 -7 10 -15 0 -8 -5 -15 -11 -15 -7 0 -8 -11 -4 -30 4 -19 3 -30 -4 -30 -6 0 -11 6 -11 12 0 7 -7 2 -16 -11 -11 -16 -23 -21 -38 -17 -19 5 -20 4 -3 -8 23 -17 22 -26 -3 -26 -11 0 -23 7 -26 15 -10 25 -34 17 -69 -22 -30 -34 -34 -36 -41 -19 -5 13 -2 23 9 31 10 7 17 19 17 28 0 11 6 13 22 9 17 -4 20 -2 15 11 -4 10 -3 17 1 17 12 0 82 69 82 80 0 5 5 10 10 10 6 0 10 -4 10 -9 0 -6 -4 -13 -10 -16 -18 -11 -10 -22 15 -22 15 0 25 5 25 13 0 8 -4 14 -9 14 -5 0 -3 14 6 31 15 31 15 31 49 -6 30 -31 33 -38 20 -50z m-156 -129 c0 -15 -21 -26 -48 -26 -13 0 -12 3 4 19 23 23 44 27 44 7z m-490 -36 c8 -5 11 -12 8 -16 -10 -9 -38 3 -38 16 0 12 10 13 30 0z"/> <path d="M690 1627 c0 -25 17 -29 47 -13 16 8 21 15 13 16 -8 0 -25 3 -37 6 -17 5 -23 2 -23 -9z"/> <path d="M1430 1585 c0 -10 7 -15 18 -13 21 4 19 22 -2 26 -10 2 -16 -3 -16 -13z"/> <path d="M1307 1113 c-4 -3 2 -13 14 -21 24 -17 37 -9 19 13 -14 16 -23 19 -33 8z"/> <path d="M791 1069 c11 -22 29 -25 29 -5 0 7 -9 16 -20 19 -17 4 -18 2 -9 -14z"/> <path d="M438 1075 c-10 -11 5 -55 18 -55 8 0 14 6 14 13 -1 16 -25 48 -32 42z"/> <path d="M1380 1021 c0 -13 26 -32 33 -24 14 13 6 33 -13 33 -11 0 -20 -4 -20 -9z"/> <path d="M520 745 c0 -8 7 -15 15 -15 8 0 15 7 15 15 0 8 -7 15 -15 15 -8 0 -15 -7 -15 -15z"/> <path d="M1621 741 c-6 -10 -7 -21 -4 -25 9 -8 33 14 33 30 0 20 -18 17 -29 -5z"/> <path d="M515 690 c-7 -12 2 -30 16 -30 12 0 12 27 0 35 -5 3 -12 1 -16 -5z"/> <path d="M1536 522 c-7 -12 13 -62 26 -62 9 0 0 50 -12 63 -4 5 -11 4 -14 -1z"/> <path d="M1362 346 c-16 -17 -19 -27 -11 -32 13 -8 39 21 39 43 0 17 -1 17 -28 -11z"/> <path d="M4120 1410 c-1 -3 -1 -203 -1 -445 0 -440 0 -440 88 -439 88 1 88 1 91 96 3 95 3 95 43 137 46 47 49 47 78 -11 30 -58 44 -83 60 -102 8 -9 26 -40 42 -69 27 -52 27 -52 96 -54 37 0 87 -4 110 -7 47 -6 62 4 36 25 -9 8 -56 75 -104 149 -49 74 -102 154 -119 177 -16 23 -30 46 -30 50 0 5 54 62 120 126 66 65 120 122 120 127 0 5 -49 7 -110 5 -110 -4 -110 -4 -200 -99 -50 -52 -100 -106 -111 -120 -11 -14 -24 -26 -27 -26 -4 0 -7 109 -7 242 0 241 0 241 -88 242 -48 1 -87 -1 -87 -4z m154 -525 c23 -34 20 -58 -10 -90 -38 -41 -57 -19 -48 58 8 64 29 76 58 32z m130 0 c10 -13 23 -22 28 -19 5 3 16 -2 23 -12 21 -28 18 -34 -9 -20 -26 13 -83 76 -69 76 4 0 17 -11 27 -25z"/> <path d="M2154 1359 c-4 -8 36 -143 67 -223 10 -27 19 -55 19 -63 0 -7 9 -42 19 -76 10 -34 26 -89 36 -122 18 -67 43 -151 79 -270 24 -80 24 -80 121 -80 110 0 108 -1 125 87 6 29 17 69 24 88 8 19 18 53 24 75 6 22 20 72 32 110 11 39 29 106 38 149 9 44 22 81 28 83 10 3 36 -83 54 -179 5 -25 16 -60 24 -77 9 -16 16 -38 16 -48 0 -10 9 -45 19 -78 17 -53 39 -129 56 -191 5 -20 12 -21 102 -20 97 1 97 1 115 41 9 22 18 49 18 61 0 11 9 49 20 85 11 35 30 96 41 134 11 39 29 97 40 130 10 33 19 67 19 76 0 9 9 38 19 65 27 69 71 216 71 237 0 15 -11 17 -89 17 -90 0 -90 0 -105 -54 -9 -30 -16 -60 -16 -67 0 -7 -9 -42 -19 -78 -40 -135 -51 -178 -51 -197 0 -10 -9 -46 -20 -78 -11 -33 -20 -76 -20 -96 0 -39 -24 -71 -40 -54 -4 5 -10 32 -13 59 -4 49 -31 156 -61 245 -8 25 -22 72 -31 105 -9 33 -26 94 -39 135 -23 75 -23 75 -100 75 -89 0 -99 -8 -111 -91 -4 -27 -11 -54 -16 -60 -5 -5 -15 -37 -23 -70 -33 -129 -48 -180 -60 -209 -8 -16 -17 -48 -21 -70 -12 -71 -37 -147 -45 -138 -4 4 -10 26 -13 48 -12 88 -26 157 -40 202 -9 26 -18 66 -22 88 -4 21 -13 52 -21 67 -8 15 -14 41 -14 58 0 17 -7 47 -15 67 -8 19 -15 47 -15 62 0 14 -4 31 -8 36 -8 12 -191 15 -198 4z m324 -651 c7 -7 12 -21 12 -32 -1 -20 -1 -20 -20 3 -29 34 -22 59 8 29z m62 -28 c0 -11 -7 -23 -15 -26 -8 -4 -15 -15 -15 -25 0 -10 -4 -19 -9 -19 -6 0 -3 20 6 45 16 47 33 60 33 25z m550 -10 c0 -5 -7 -10 -16 -10 -13 0 -15 -7 -10 -31 5 -27 4 -28 -9 -15 -21 20 -19 32 7 50 26 19 28 19 28 6z"/> <path d="M3595 1169 c-59 -9 -112 -28 -146 -50 -23 -16 -23 -18 -10 -55 7 -22 20 -49 28 -62 14 -22 15 -23 39 -7 65 42 174 56 236 31 47 -20 57 -34 60 -87 3 -44 3 -44 -127 -44 -184 -1 -251 -35 -274 -137 -24 -105 19 -182 126 -226 89 -38 187 -20 255 45 30 28 38 21 35 -27 -2 -25 -1 -25 82 -25 85 0 85 0 82 240 -3 275 -10 302 -89 362 -68 52 -160 65 -297 42z m207 -404 c-7 -82 -39 -113 -125 -121 -61 -6 -96 9 -115 49 -33 69 24 108 153 105 90 -3 90 -3 87 -33z"/> <path d="M4991 1171 c-223 -57 -312 -341 -167 -529 23 -29 49 -55 58 -58 10 -3 18 -9 18 -14 0 -18 158 -60 208 -55 84 8 160 37 207 81 58 53 61 84 8 107 -21 9 -48 24 -60 32 -21 16 -23 15 -47 -8 -46 -46 -69 -57 -121 -57 -189 0 -229 303 -46 356 50 14 118 -2 159 -37 40 -35 32 -35 90 1 27 16 54 30 61 30 23 0 10 39 -23 70 -67 64 -112 82 -216 86 -52 2 -110 -1 -129 -5z"/> <path d="M5640 1173 c-55 -5 -180 -52 -187 -70 -3 -7 7 -38 21 -69 25 -52 28 -55 44 -41 19 18 129 47 176 47 86 0 150 -50 144 -115 -3 -30 -3 -30 -120 -27 -169 5 -245 -23 -288 -109 -22 -43 -25 -76 -9 -132 13 -47 63 -105 98 -113 14 -4 31 -11 38 -16 40 -32 216 4 249 50 20 29 34 20 34 -21 0 -32 0 -32 83 -32 82 1 82 1 82 220 1 299 -11 341 -120 404 -42 24 -142 34 -245 24z m267 -303 c10 0 12 -6 8 -22 -8 -27 -35 -58 -35 -41 0 7 5 15 10 18 15 10 12 35 -5 35 -16 0 -20 12 -8 24 4 4 9 2 11 -3 2 -6 10 -11 19 -11z m-71 -110 c2 -109 -209 -172 -247 -73 -30 78 19 113 156 110 90 -2 90 -2 91 -37z"/> <path d="M6152 1173 c-4 -2 -6 -148 -5 -325 2 -323 2 -323 92 -324 61 -1 91 2 92 10 0 6 0 93 -1 193 -1 176 0 183 22 214 34 46 100 81 145 77 38 -3 38 -3 41 80 3 82 3 82 -32 82 -53 0 -87 -17 -133 -67 -49 -53 -63 -50 -53 9 5 24 7 45 5 47 -4 4 -161 7 -173 4z m108 -134 c0 -5 9 -20 20 -31 17 -19 18 -24 6 -36 -19 -19 -61 5 -44 25 7 9 7 17 -2 28 -6 8 -9 19 -5 25 7 12 25 4 25 -11z m53 -19 c9 -11 14 -20 11 -20 -13 0 -44 21 -44 30 0 16 14 11 33 -10z"/> <path d="M6810 1172 c-175 -49 -269 -241 -212 -436 25 -86 113 -173 203 -201 82 -25 157 -25 239 0 64 19 150 77 150 101 0 6 -23 29 -52 52 -52 40 -52 40 -89 10 -66 -53 -183 -51 -241 5 -96 91 -93 93 183 88 127 -2 234 1 239 5 13 15 -7 157 -30 207 -52 116 -137 169 -275 173 -49 2 -101 0 -115 -4z m171 -142 c45 -24 81 -74 77 -109 -3 -24 -3 -24 -150 -25 -158 -1 -166 2 -148 48 12 34 75 94 102 99 50 9 81 6 119 -13z m-271 -201 c0 -5 -4 -9 -10 -9 -5 0 -10 6 -10 14 0 8 -7 17 -15 20 -13 5 -14 10 -4 27 11 22 12 21 25 -11 8 -18 14 -36 14 -41z"/> <path d="M1016 820 c-32 -10 -94 -73 -108 -110 -72 -190 167 -341 310 -194 40 43 45 54 45 109 0 83 -3 92 -51 144 -47 50 -51 53 -108 57 -32 2 -72 -1 -88 -6z m69 -90 c5 -8 11 -7 20 0 21 17 37 3 25 -21 -13 -22 7 -27 29 -6 11 10 12 8 6 -12 -4 -15 -3 -26 5 -31 9 -6 8 -14 -5 -33 -10 -16 -14 -34 -10 -48 5 -15 3 -20 -6 -17 -17 6 -21 58 -6 76 13 16 5 24 -16 16 -12 -4 -14 -16 -10 -61 6 -53 5 -55 -18 -51 -18 2 -24 9 -24 27 0 14 -7 27 -15 29 -8 3 -21 11 -28 19 -7 7 -20 13 -27 13 -14 0 -31 37 -21 47 3 3 13 0 22 -8 14 -11 19 -10 34 9 10 12 16 31 13 42 -6 21 20 29 32 10z m-38 -148 c17 -29 0 -47 -21 -23 -10 11 -15 25 -11 30 9 16 19 13 32 -7z"/> </g> </svg>