<?xml version="1.0" encoding="UTF-8"?>
<svg version="1.1" xmlns="http://www.w3.org/2000/svg" width="1024" height="1024">
<path d="M0 0 C337.92 0 675.84 0 1024 0 C1024 337.92 1024 675.84 1024 1024 C686.08 1024 348.16 1024 0 1024 C0 686.08 0 348.16 0 0 Z " fill="#FDFEFE" transform="translate(0,0)"/>
<path d="M0 0 C0.7312207 0.25652344 1.46244141 0.51304687 2.21582031 0.77734375 C14.03977985 4.98903108 25.52451371 10.01634247 36 17 C36.33093702 20.0967624 36.46727314 22.98798479 36.46875 26.08984375 C36.47835754 27.01350739 36.48796509 27.93717102 36.49786377 28.88882446 C36.51923885 31.90539004 36.51273494 34.92089545 36.5 37.9375 C36.49885193 39.46889114 36.49885193 39.46889114 36.49768066 41.03121948 C36.42322582 68.42871219 33.7895977 104.2104023 13.25 124.75 C12.1775 125.4925 11.105 126.235 10 127 C9.33871094 127.46535156 8.67742187 127.93070313 7.99609375 128.41015625 C0.37120856 133.0418547 -8.35942311 133.54000241 -17 132 C-30.93437479 127.89235354 -38.25321588 118.44329994 -44.9375 106.1875 C-45.52595703 105.13884766 -46.11441406 104.09019531 -46.72070312 103.00976562 C-51 95.30106707 -51 95.30106707 -51 93 C-51.66 93 -52.32 93 -53 93 C-53.28141846 93.72977051 -53.56283691 94.45954102 -53.8527832 95.21142578 C-55.65741125 99.59798921 -57.9324192 103.70660978 -60.1875 107.875 C-60.87295898 109.18404297 -60.87295898 109.18404297 -61.57226562 110.51953125 C-65.58989849 117.93069867 -70.22260059 124.20487149 -78.0625 127.8125 C-78.85785156 128.19019531 -79.65320313 128.56789063 -80.47265625 128.95703125 C-88.92284599 132.44420383 -97.68515343 133.61074347 -106.6953125 131.3125 C-108.94995435 130.36979261 -110.93397136 129.30293751 -113 128 C-113.70769531 127.57589844 -114.41539062 127.15179687 -115.14453125 126.71484375 C-120.64201655 123.05325335 -123.28497598 118.92926214 -126 113 C-126.72316406 111.52080078 -126.72316406 111.52080078 -127.4609375 110.01171875 C-137.86153667 87.54748044 -140.21381581 62.55834102 -140.74642944 38.09805298 C-140.79024398 36.33371352 -140.85031717 34.56969803 -140.92715454 32.80648804 C-141.50057965 18.76330553 -141.50057965 18.76330553 -138.01293945 14.66503906 C-135.39290306 13.05402814 -132.90119744 12.00778985 -130 11 C-128.55556116 10.28463335 -127.11859319 9.55388069 -125.69140625 8.8046875 C-124.31854263 8.15415182 -122.94218488 7.51094089 -121.5625 6.875 C-120.82370605 6.53299561 -120.08491211 6.19099121 -119.32373047 5.83862305 C-81.59532115 -11.42573213 -39.22563134 -13.92180681 0 0 Z " fill="#9978C4" transform="translate(293,425)"/>
<path d="M0 0 C-0.66 0.66 -1.32 1.32 -2 2 C-2.24501495 4.43176397 -2.37324921 6.75864884 -2.4140625 9.1953125 C-2.43342865 9.90275604 -2.4527948 10.61019958 -2.4727478 11.33908081 C-2.53257652 13.60093085 -2.57894101 15.8628317 -2.625 18.125 C-2.66317686 19.6575744 -2.70222842 21.19012728 -2.7421875 22.72265625 C-2.83828039 26.48159624 -2.92229849 30.24063668 -3 34 C-2.34 34.33 -1.68 34.66 -1 35 C-1.66829834 35.06993164 -2.33659668 35.13986328 -3.02514648 35.21191406 C-20.55401317 37.08254202 -37.18828862 39.24469565 -53.55859375 46.046875 C-56 47 -56 47 -58 47 C-56.90843823 67.21607902 -55.4158188 83.85609738 -46 102 C-45.34197388 100.75911621 -45.34197388 100.75911621 -44.6706543 99.49316406 C-43.03517479 96.41293531 -41.39666654 93.33435809 -39.75610352 90.25683594 C-39.04785833 88.92675246 -38.34081215 87.59602979 -37.63500977 86.26464844 C-36.61792588 84.34659595 -35.5964946 82.43091425 -34.57421875 80.515625 C-33.96151123 79.36352539 -33.34880371 78.21142578 -32.7175293 77.02441406 C-31.28578534 74.50324218 -29.80916852 72.2572223 -28 70 C-22.81298543 70.31436452 -19.4052641 73.30033267 -16 77 C-16 77.66 -16 78.32 -16 79 C-15.34 79 -14.68 79 -14 79 C-13.80664062 79.55429687 -13.61328125 80.10859375 -13.4140625 80.6796875 C-13.15367187 81.40414062 -12.89328125 82.12859375 -12.625 82.875 C-12.36976563 83.59429687 -12.11453125 84.31359375 -11.8515625 85.0546875 C-11.06122217 87.18157994 -11.06122217 87.18157994 -9 89 C-8.30341637 90.65438613 -7.63903117 92.32254318 -7 94 C-6.62875 94.66 -6.2575 95.32 -5.875 96 C-4.75680253 98.55587994 -4.77654722 100.21551188 -5 103 C-6.67366285 106.97103222 -8.91604543 110.64162667 -11.0625 114.375 C-11.62388672 115.39078125 -12.18527344 116.4065625 -12.76367188 117.453125 C-17.14897721 125.17126238 -21.78101074 132.00166836 -30.0625 135.8125 C-30.85785156 136.19019531 -31.65320313 136.56789063 -32.47265625 136.95703125 C-40.92284599 140.44420383 -49.68515343 141.61074347 -58.6953125 139.3125 C-60.94995435 138.36979261 -62.93397136 137.30293751 -65 136 C-65.70769531 135.57589844 -66.41539062 135.15179687 -67.14453125 134.71484375 C-72.64201655 131.05325335 -75.28497598 126.92926214 -78 121 C-78.72316406 119.52080078 -78.72316406 119.52080078 -79.4609375 118.01171875 C-89.86153667 95.54748044 -92.21381581 70.55834102 -92.74642944 46.09805298 C-92.79024398 44.33371352 -92.85031717 42.56969803 -92.92715454 40.80648804 C-93.50057965 26.76330553 -93.50057965 26.76330553 -90.01293945 22.66503906 C-87.39290306 21.05402814 -84.90119744 20.00778985 -82 19 C-80.55556116 18.28463335 -79.11859319 17.55388069 -77.69140625 16.8046875 C-76.31854263 16.15415182 -74.94218488 15.51094089 -73.5625 14.875 C-72.82370605 14.53299561 -72.08491211 14.19099121 -71.32373047 13.83862305 C-48.23944476 3.27535482 -25.23376593 -0.44168434 0 0 Z " fill="#204D94" transform="translate(245,417)"/>
<path d="M0 0 C6.93 0 13.86 0 21 0 C21.886875 2.97 22.77375 5.94 23.6875 9 C25.63080712 15.49059274 27.59697109 21.97285679 29.625 28.4375 C29.82593262 29.07977539 30.02686523 29.72205078 30.23388672 30.38378906 C31.21188543 33.50540127 32.19998105 36.62339368 33.19921875 39.73828125 C33.56660156 40.89714844 33.93398438 42.05601562 34.3125 43.25 C34.63863281 44.26578125 34.96476562 45.2815625 35.30078125 46.328125 C36 49 36 49 36 53 C36.66 53 37.32 53 38 53 C38.10127197 51.88343018 38.20254395 50.76686035 38.30688477 49.61645508 C38.94297272 44.56743339 40.45806934 39.94129029 42.08984375 35.13671875 C42.54672325 33.76601982 42.54672325 33.76601982 43.01283264 32.36763 C43.65397619 30.44953205 44.29876536 28.53264919 44.94702148 26.61694336 C45.93939989 23.68188087 46.91877906 20.74271313 47.89648438 17.80273438 C48.52267745 15.93464089 49.14960488 14.06679337 49.77734375 12.19921875 C50.07011703 11.32110031 50.36289032 10.44298187 50.66453552 9.53825378 C50.9414473 8.72343033 51.21835907 7.90860687 51.50366211 7.0690918 C51.74491318 6.35375778 51.98616425 5.63842377 52.23472595 4.90141296 C53 3 53 3 55 0 C56.87939453 -0.34057617 56.87939453 -0.34057617 59.1328125 -0.29296875 C59.93847656 -0.28330078 60.74414062 -0.27363281 61.57421875 -0.26367188 C62.83685547 -0.2259668 62.83685547 -0.2259668 64.125 -0.1875 C64.97449219 -0.17396484 65.82398438 -0.16042969 66.69921875 -0.14648438 C68.79974837 -0.11108219 70.89995293 -0.05727401 73 0 C75.28484144 6.9213913 77.56279913 13.84502006 79.8359375 20.77026367 C80.61038631 23.12690751 81.38642177 25.48303054 82.1640625 27.83862305 C83.28020007 31.22049141 84.39065729 34.60417885 85.5 37.98828125 C85.84998047 39.04461258 86.19996094 40.10094391 86.56054688 41.18928528 C86.88087891 42.17007553 87.20121094 43.15086578 87.53125 44.16137695 C87.95760742 45.45710381 87.95760742 45.45710381 88.39257812 46.77900696 C89 49 89 49 89 52 C89.66 52 90.32 52 91 52 C91.226875 50.845 91.45375 49.69 91.6875 48.5 C92.9416962 42.88639078 94.68406529 37.44448462 96.4296875 31.96875 C97.67348701 28.0610779 98.87660731 24.14201038 100.0703125 20.21875 C100.4297998 19.03917725 100.78928711 17.85960449 101.15966797 16.64428711 C101.88219526 14.27075423 102.60259957 11.89657399 103.32080078 9.52172852 C103.65321777 8.43303467 103.98563477 7.34434082 104.328125 6.22265625 C104.77526855 4.74937866 104.77526855 4.74937866 105.23144531 3.24633789 C106 1 106 1 107 0 C108.41570123 -0.08651611 109.835595 -0.10704904 111.25390625 -0.09765625 C112.53491211 -0.09282227 112.53491211 -0.09282227 113.84179688 -0.08789062 C115.18854492 -0.07532227 115.18854492 -0.07532227 116.5625 -0.0625 C117.46419922 -0.05798828 118.36589844 -0.05347656 119.29492188 -0.04882812 C121.53001314 -0.03700225 123.76497437 -0.0205222 126 0 C123.36855927 10.45104855 119.92313415 20.64242585 116.5625 30.875 C109.87571602 51.25665776 109.87571602 51.25665776 103.75 71.8125 C103.1725 73.854375 102.595 75.89625 102 78 C94.41 78 86.82 78 79 78 C78.38125 75.97875 77.7625 73.9575 77.125 71.875 C75.30931241 65.99960448 73.3963216 60.15854811 71.44140625 54.328125 C71.21632385 53.65641266 70.99124146 52.98470032 70.75933838 52.29263306 C69.61195578 48.87172178 68.46002521 45.45240486 67.30322266 42.03466797 C66.87265069 40.75490659 66.44214646 39.47512241 66.01171875 38.1953125 C65.62459717 37.05078613 65.23747559 35.90625977 64.83862305 34.72705078 C64 32 64 32 64 30 C63.34 30 62.68 30 62 30 C61.88897949 30.65758301 61.77795898 31.31516602 61.66357422 31.99267578 C60.82566801 35.7900741 59.61696051 39.43489732 58.3828125 43.1171875 C58.12498993 43.89256866 57.86716736 44.66794983 57.60153198 45.46682739 C57.05663066 47.10288872 56.5102223 48.73844879 55.96240234 50.37353516 C55.13061305 52.85823287 54.30521569 55.34498838 53.48046875 57.83203125 C52.94830116 59.42721166 52.41576111 61.02226786 51.8828125 62.6171875 C51.63894806 63.35282928 51.39508362 64.08847107 51.14382935 64.84640503 C50.78863724 65.90252487 50.78863724 65.90252487 50.42626953 66.97998047 C50.12101852 67.89334671 50.12101852 67.89334671 49.80960083 68.82516479 C48.65433939 71.92855002 47.30443976 74.95630722 46 78 C38.74 78 31.48 78 24 78 C20.5710519 68.81531759 17.59618873 59.55257129 14.8828125 50.1328125 C12.30327825 41.19970344 9.49608724 32.37027421 6.53173828 23.55712891 C0 4.1280058 0 4.1280058 0 0 Z " fill="#1A4175" transform="translate(361,473)"/>
<path d="M0 0 C0.35700349 17.85017468 -0.47076925 38.22471885 -10 54 C-10.99 54.495 -10.99 54.495 -12 55 C-12.45850342 54.1529248 -12.91700684 53.30584961 -13.3894043 52.43310547 C-15.10661677 49.26485684 -16.83265511 46.10148767 -18.5612793 42.93945312 C-19.30552499 41.57519092 -20.04743173 40.20964985 -20.78686523 38.84277344 C-21.85555277 36.86825972 -22.9328146 34.89863334 -24.01171875 32.9296875 C-24.33589279 32.32631561 -24.66006683 31.72294373 -24.99406433 31.10128784 C-28.28421838 25.13550498 -31.73905151 20.10977372 -38.0625 17.1875 C-38.89910156 16.78917969 -39.73570312 16.39085937 -40.59765625 15.98046875 C-47.94144942 12.98324585 -57.20153363 12.66855741 -64.84375 14.7890625 C-68.59783986 16.42834841 -71.79804148 18.43843319 -75 21 C-75.66 21 -76.32 21 -77 21 C-77.23332031 21.64839844 -77.46664062 22.29679687 -77.70703125 22.96484375 C-79.42397159 26.99524448 -81.54178327 30.74691501 -83.6875 34.5625 C-84.13013184 35.35446777 -84.57276367 36.14643555 -85.02880859 36.96240234 C-88.61064571 43.35271066 -92.26732333 49.69647317 -96 56 C-108.20025916 40.37813842 -108.19697742 18.86605933 -108 0 C-74.87127384 -15.22979354 -33.10423919 -16.55211959 0 0 Z " fill="#FBFCFC" transform="translate(295,464)"/>
<path d="M0 0 C5.68216431 3.98005426 8.81279587 8.44719362 11.9375 14.5625 C12.78785456 16.16149363 13.64074473 17.75914123 14.49609375 19.35546875 C15.12233643 20.53181885 15.12233643 20.53181885 15.76123047 21.73193359 C18.1286253 26.06640304 20.77318879 30.22222977 23.40625 34.3984375 C24.73790135 36.5721625 25.86894498 38.72107129 27 41 C28.39862321 43.52319691 29.8514339 46.01256516 31.3125 48.5 C31.69083984 49.16386719 32.06917969 49.82773437 32.45898438 50.51171875 C35.40888113 55.51306654 38.29760817 59.09920272 44 61 C45.56118428 61.06740865 47.1250252 61.08514456 48.6875 61.0625 C49.49574219 61.05347656 50.30398438 61.04445313 51.13671875 61.03515625 C51.75160156 61.02355469 52.36648438 61.01195312 53 61 C50.76084789 65.35390689 47.97988247 68.23619273 44 71 C43.33484375 71.47050781 42.6696875 71.94101562 41.984375 72.42578125 C34.35102987 77.03434847 25.63900618 77.53972246 17 76 C3.06562521 71.89235354 -4.25321588 62.44329994 -10.9375 50.1875 C-11.52595703 49.13884766 -12.11441406 48.09019531 -12.72070312 47.00976562 C-17 39.30106707 -17 39.30106707 -17 37 C-17.66 37 -18.32 37 -19 37 C-19.433125 35.96875 -19.86625 34.9375 -20.3125 33.875 C-22.91672033 27.46541717 -22.91672033 27.46541717 -27 22 C-27.40047444 19.67724823 -27.7397104 17.34260643 -28 15 C-28.66 15 -29.32 15 -30 15 C-30.556875 14.2575 -31.11375 13.515 -31.6875 12.75 C-34.51501138 9.38755403 -37.12381652 8.01263373 -41 6 C-41 5.34 -41 4.68 -41 4 C-39.2421875 2.5625 -39.2421875 2.5625 -36.875 1 C-36.10929688 0.484375 -35.34359375 -0.03125 -34.5546875 -0.5625 C-24.24450596 -6.36394772 -10.2335604 -5.83437742 0 0 Z " fill="#49BAAC" transform="translate(259,481)"/>
<path d="M0 0 C6.27 0 12.54 0 19 0 C19.33 14.52 19.66 29.04 20 44 C26.12057679 37.83991489 26.12057679 37.83991489 32.2355957 31.67431641 C32.99960693 30.90780762 33.76361816 30.14129883 34.55078125 29.3515625 C35.33106689 28.56604004 36.11135254 27.78051758 36.9152832 26.97119141 C40.39930199 23.67689843 42.3989051 22.75027636 47.10546875 22.8046875 C48.08837891 22.81113281 49.07128906 22.81757813 50.08398438 22.82421875 C51.10814453 22.84097656 52.13230469 22.85773438 53.1875 22.875 C54.22326172 22.88402344 55.25902344 22.89304687 56.32617188 22.90234375 C58.88434685 22.9259214 61.44205748 22.9588297 64 23 C59.47008204 28.43733055 54.65705784 33.46458931 49.625 38.4375 C48.52091797 39.53481445 48.52091797 39.53481445 47.39453125 40.65429688 C45.59863926 42.43852723 43.80044015 44.22036124 42 46 C43.2961934 49.54162919 44.82965361 52.44055386 47.01171875 55.51171875 C47.60533203 56.35283203 48.19894531 57.19394531 48.81054688 58.06054688 C49.42994141 58.92744141 50.04933594 59.79433594 50.6875 60.6875 C51.89973958 62.39973958 53.11197917 64.11197917 54.32421875 65.82421875 C56.21416071 68.4898339 58.10892865 71.15130883 60.01806641 73.80322266 C60.6579248 74.69960449 61.2977832 75.59598633 61.95703125 76.51953125 C62.54073486 77.33139893 63.12443848 78.1432666 63.72583008 78.97973633 C65 81 65 81 65 83 C46.60059362 84.62142274 46.60059362 84.62142274 41.10546875 81.1953125 C39.04804221 78.57219842 37.53919742 75.95617569 36 73 C34.54550293 70.75894803 33.01770442 68.5744959 31.5 66.375 C30.32862847 64.58640578 29.16020887 62.79585521 28 61 C24.59031149 62.46129508 22.24225923 64.01682032 20 67 C19.54694772 69.89256458 19.30712556 72.35991285 19.25 75.25 C19.1675 77.8075 19.085 80.365 19 83 C12.73 83 6.46 83 0 83 C0 55.61 0 28.22 0 0 Z " fill="#184075" transform="translate(560,468)"/>
<path d="M0 0 C5.44857768 3.54157549 5.44857768 3.54157549 7.96875 5.63671875 C8.6390625 6.18972656 9.309375 6.74273438 10 7.3125 C10.928125 8.11107422 10.928125 8.11107422 11.875 8.92578125 C15.00029166 10.50566214 16.68503734 10.01359761 20 9 C23.05696717 6.9691542 23.05696717 6.9691542 25.875 4.4375 C26.84179688 3.61121094 27.80859375 2.78492188 28.8046875 1.93359375 C29.52914062 1.29550781 30.25359375 0.65742187 31 0 C31.96421875 0.49371094 32.9284375 0.98742187 33.921875 1.49609375 C35.19780852 2.14344237 36.47385621 2.79056599 37.75 3.4375 C38.38421875 3.76298828 39.0184375 4.08847656 39.671875 4.42382812 C44.87941644 7.05472146 48.61548509 8.12991397 54.421875 8.09765625 C55.44667969 8.09443359 56.47148437 8.09121094 57.52734375 8.08789062 C59.12255859 8.07532227 59.12255859 8.07532227 60.75 8.0625 C61.82894531 8.05798828 62.90789062 8.05347656 64.01953125 8.04882812 C66.67974383 8.03705727 69.33984365 8.02061399 72 8 C71.05052441 9.11677492 70.09975103 10.23244654 69.1484375 11.34765625 C68.61911621 11.96906494 68.08979492 12.59047363 67.54443359 13.23071289 C65.47139427 15.60556524 63.25557045 17.7981336 61 20 C60.163479 20.87700562 60.163479 20.87700562 59.31005859 21.77172852 C54.57937013 26.67702349 49.65237715 30.70671815 44 34.5 C43.18055908 35.05316895 42.36111816 35.60633789 41.5168457 36.17626953 C36.21703829 39.6876414 30.83449511 42.95266667 25.1875 45.875 C24.54876953 46.21466797 23.91003906 46.55433594 23.25195312 46.90429688 C19.05323432 48.96564871 16.46786707 49.34671802 12 48 C9.42116316 46.92641901 6.98153419 45.82421985 4.5 44.5625 C3.80293945 44.20905518 3.10587891 43.85561035 2.38769531 43.49145508 C-9.85582502 37.09900484 -20.11955049 28.56082878 -30 19 C-30.90621094 18.13375 -31.81242188 17.2675 -32.74609375 16.375 C-37.3650367 11.87855632 -37.3650367 11.87855632 -39 10 C-39 9.34 -39 8.68 -39 8 C-38.39639648 8.02618408 -37.79279297 8.05236816 -37.17089844 8.0793457 C-22.3635079 8.63681037 -12.79200559 7.77553281 0 0 Z " fill="#8168B9" transform="translate(225,558)"/>
<path d="M0 0 C7.12861802 4.68640629 11.6353465 10.24304161 14.109375 18.38671875 C14.109375 23.33671875 14.109375 28.28671875 14.109375 33.38671875 C-0.410625 33.38671875 -14.930625 33.38671875 -29.890625 33.38671875 C-26.4900668 40.14928344 -26.4900668 40.14928344 -20.890625 43.38671875 C-15.12988053 44.13460487 -8.16891466 44.95441778 -3.265625 41.32421875 C-2.481875 40.68484375 -1.698125 40.04546875 -0.890625 39.38671875 C2.6193162 39.70254168 4.46182341 41.28059961 6.921875 43.69921875 C7.54707031 44.29347656 8.17226563 44.88773438 8.81640625 45.5 C10.109375 47.38671875 10.109375 47.38671875 10.07421875 49.421875 C8.79302315 52.03094945 7.30577474 52.96449243 4.859375 54.51171875 C4.09109375 55.00929688 3.3228125 55.506875 2.53125 56.01953125 C-6.48923765 61.11174202 -18.12050688 60.74399333 -28.14453125 58.734375 C-36.08171552 55.84022174 -41.97145629 50.68115606 -45.828125 43.19921875 C-49.65596031 34.95964105 -50.60481495 25.21342719 -48.01953125 16.42578125 C-43.92969957 7.70974653 -37.76773293 1.97615804 -28.890625 -1.61328125 C-20.50172495 -4.40958127 -7.96203353 -3.91237854 0 0 Z " fill="#194176" transform="translate(856.890625,492.61328125)"/>
<path d="M0 0 C4.68305233 4.07851285 8.65533271 8.73631441 9.17353821 15.14674377 C9.23135441 17.80452493 9.22460873 20.45502699 9.1953125 23.11328125 C9.1924826 24.08283249 9.18965271 25.05238373 9.18673706 26.05131531 C9.17556991 29.13850405 9.15047152 32.22539939 9.125 35.3125 C9.11496573 37.40950101 9.10584066 39.50650658 9.09765625 41.60351562 C9.07564188 46.7357896 9.04113571 51.8678451 9 57 C3.39 57 -2.22 57 -8 57 C-8 55.02 -8 53.04 -8 51 C-8.66 51 -9.32 51 -10 51 C-10.165 51.598125 -10.33 52.19625 -10.5 52.8125 C-12.90627393 56.32164948 -16.00218605 57.18173399 -20 58 C-27.98061503 58.80860857 -35.37740216 59.1170562 -42.26171875 54.56640625 C-46.61805331 50.64081039 -48.81106135 45.50343707 -49.25 39.6875 C-48.87394338 34.14066486 -47.22244057 31.22244057 -43.3125 27.3125 C-36.19754044 21.8986852 -29.10734615 21.59223327 -20.5 21.8125 C-18.98019531 21.83280273 -18.98019531 21.83280273 -17.4296875 21.85351562 C-14.95255596 21.88856937 -12.47657073 21.93770236 -10 22 C-10.99962846 16.92300737 -10.99962846 16.92300737 -14.23828125 13.0859375 C-22.53936121 9.82186363 -31.93465814 11.9413602 -40 15 C-40.86883706 13.42466914 -41.71959068 11.83935491 -42.5625 10.25 C-43.03816406 9.36828125 -43.51382813 8.4865625 -44.00390625 7.578125 C-45 5 -45 5 -44.94921875 2.80859375 C-43.573412 0.18720064 -41.99584442 -0.19233449 -39.25 -1.1875 C-37.95835937 -1.67283203 -37.95835937 -1.67283203 -36.640625 -2.16796875 C-25.5863706 -5.65104003 -10.09725028 -6.2283726 0 0 Z " fill="#194176" transform="translate(740,494)"/>
<path d="M0 0 C4.23720329 3.38976263 7.700639 7.1754839 9.8125 12.25 C10.05300903 14.43939209 10.05300903 14.43939209 10.03955078 16.83496094 C10.03939972 17.73559265 10.03924866 18.63622437 10.03909302 19.56414795 C10.02877045 20.52782288 10.01844788 21.4914978 10.0078125 22.484375 C10.0049826 23.47753723 10.00215271 24.47069946 9.99923706 25.49395752 C9.98805143 28.66276144 9.96294962 31.83128165 9.9375 35 C9.92746812 37.1497355 9.91834263 39.29947543 9.91015625 41.44921875 C9.88811736 46.71625497 9.85359842 51.9830794 9.8125 57.25 C4.2025 57.25 -1.4075 57.25 -7.1875 57.25 C-7.5175 55.6 -7.8475 53.95 -8.1875 52.25 C-8.909375 52.86875 -9.63125 53.4875 -10.375 54.125 C-17.50799497 59.51437398 -25.65241789 59.0787317 -34.1875 58.25 C-40.00167716 56.27808839 -43.27101813 52.61632665 -46.1875 47.25 C-47.54522166 43.17683502 -47.70615848 39.5088436 -47.1875 35.25 C-44.44736246 29.76972491 -40.31102912 25.6742507 -34.703125 23.1171875 C-29.71771579 21.88745323 -24.92467288 22.03924742 -19.8125 22.125 C-18.27916016 22.13853516 -18.27916016 22.13853516 -16.71484375 22.15234375 C-14.20548478 22.1757957 -11.69661664 22.20861645 -9.1875 22.25 C-10.18593687 17.17709437 -10.18593687 17.17709437 -13.41796875 13.33984375 C-19.11089868 11.09960757 -25.97290403 11.11456931 -31.7421875 13.15234375 C-33.59896156 14.10793626 -35.39982775 15.17065072 -37.1875 16.25 C-37.8475 16.25 -38.5075 16.25 -39.1875 16.25 C-39.83660154 14.66800369 -40.48164694 13.08434276 -41.125 11.5 C-41.48464844 10.61828125 -41.84429687 9.7365625 -42.21484375 8.828125 C-43.04106576 6.63813896 -43.68119943 4.53101729 -44.1875 2.25 C-30.69679679 -4.18306681 -13.82744789 -7.59154002 0 0 Z " fill="#184175" transform="translate(535.1875,493.75)"/>
<path d="M0 0 C4.4961118 2.7201009 7.68582535 5.26320564 9.87890625 10.13671875 C9.78125 12.08203125 9.78125 12.08203125 8.87890625 14.13671875 C6.515625 15.91015625 6.515625 15.91015625 3.56640625 17.51171875 C2.60089844 18.05570312 1.63539063 18.5996875 0.640625 19.16015625 C-2.12109375 20.13671875 -2.12109375 20.13671875 -4.4765625 19.30078125 C-5.01925781 18.91664063 -5.56195312 18.5325 -6.12109375 18.13671875 C-6.12109375 17.47671875 -6.12109375 16.81671875 -6.12109375 16.13671875 C-6.92546875 15.82734375 -7.72984375 15.51796875 -8.55859375 15.19921875 C-11.12109375 14.13671875 -11.12109375 14.13671875 -12.12109375 13.13671875 C-16.81028607 12.53452774 -20.26412136 12.69236269 -24.49609375 14.88671875 C-27.79435557 17.71380031 -29.89370035 19.53604759 -30.51953125 23.94140625 C-30.53003671 31.98939101 -30.53003671 31.98939101 -27.12109375 39.13671875 C-23.06113945 42.89694488 -19.42687659 42.73267887 -14.09375 42.6484375 C-10.06935303 41.95567009 -8.40371699 40.18882122 -5.62109375 37.359375 C-5.12609375 36.95589844 -4.63109375 36.55242188 -4.12109375 36.13671875 C-1.24609375 36.44921875 -1.24609375 36.44921875 1.87890625 38.13671875 C2.66265625 38.55566406 3.44640625 38.97460938 4.25390625 39.40625 C6.48406182 40.61541247 8.68670189 41.86036866 10.87890625 43.13671875 C8.28152502 48.23158194 5.72748461 51.94106483 0.87890625 55.13671875 C0.31171875 55.53117188 -0.25546875 55.925625 -0.83984375 56.33203125 C-8.55713464 60.71128759 -18.55555816 60.32622207 -27.12109375 59.13671875 C-36.36019235 56.4292182 -42.53078738 51.0955556 -47.4296875 42.96484375 C-51.34264802 34.8952089 -51.75796886 24.70643981 -49.23828125 16.1328125 C-45.3382749 7.67418945 -39.14557342 1.61124207 -30.546875 -1.98046875 C-20.85979649 -4.47679685 -9.0715749 -4.49634582 0 0 Z " fill="#184176" transform="translate(677.12109375,492.86328125)"/>
<path d="M0 0 C11.55962383 3.3101 20.00561139 11.85565005 26 22 C31.37516774 31.77303226 30.99149974 40.80897858 28.3125 51.4375 C22.73880174 70.6007806 22.73880174 70.6007806 17 77 C13.07594591 78.96202704 9.07416136 78.33567543 5 77.0625 C0.65394639 74.07458815 -2.04571483 70.32518317 -5 66 C-5.52464844 65.23816406 -6.04929687 64.47632813 -6.58984375 63.69140625 C-9.16073719 59.58224969 -10.75170833 56.40510435 -9.72265625 51.4296875 C-8.35620514 46.83545728 -6.84463598 42.3017715 -5.25390625 37.78125 C-2.43566913 29.28264088 -1.47278507 21.41777725 -0.875 12.5 C-0.74544922 10.69402344 -0.74544922 10.69402344 -0.61328125 8.8515625 C-0.40255722 5.90142603 -0.1983057 2.95099283 0 0 Z " fill="#67509A" transform="translate(295,465)"/>
<path d="M0 0 C5.18701457 0.31436452 8.5947359 3.30033267 12 7 C12 7.66 12 8.32 12 9 C12.66 9 13.32 9 14 9 C14.29003906 9.83144531 14.29003906 9.83144531 14.5859375 10.6796875 C14.97652344 11.76636719 14.97652344 11.76636719 15.375 12.875 C15.63023437 13.59429687 15.88546875 14.31359375 16.1484375 15.0546875 C16.93877783 17.18157994 16.93877783 17.18157994 19 19 C19.69658363 20.65438613 20.36096883 22.32254318 21 24 C21.37125 24.66 21.7425 25.32 22.125 26 C23.24748652 28.56568348 23.23688648 30.20358402 23 33 C21.82250977 35.66308594 21.82250977 35.66308594 20.19140625 38.484375 C19.60939453 39.50144531 19.02738281 40.51851562 18.42773438 41.56640625 C17.81220703 42.61699219 17.19667969 43.66757812 16.5625 44.75 C15.95083984 45.81605469 15.33917969 46.88210938 14.70898438 47.98046875 C10.20365367 55.79634633 10.20365367 55.79634633 9 57 C4.47809025 57.58070841 0.93327425 57.45748738 -3.1875 55.4375 C-9.65456815 49.83270761 -14.93780736 43.07846931 -18 35 C-17.54896856 30.81019061 -15.93829923 27.64321522 -13.9453125 23.96484375 C-13.33042969 22.82595703 -12.71554688 21.68707031 -12.08203125 20.51367188 C-11.76057129 19.92642334 -11.43911133 19.3391748 -11.10791016 18.73413086 C-10.12816708 16.94328901 -9.15903504 15.1470204 -8.19140625 13.34960938 C-3.001581 3.78797934 -3.001581 3.78797934 0 0 Z " fill="#183673" transform="translate(217,487)"/>
<path d="M0 0 C0 5.28 0 10.56 0 16 C-1.340625 16.0825 -2.68125 16.165 -4.0625 16.25 C-8.99834911 16.80965533 -11.96467712 18.09456753 -16 21 C-19.24898115 25.16363635 -19.46764585 29.04211176 -19.51171875 34.14453125 C-19.52966995 34.91431808 -19.54762115 35.68410492 -19.56611633 36.47721863 C-19.62005387 38.92225764 -19.65406073 41.36710332 -19.6875 43.8125 C-19.72068782 45.47593826 -19.75517884 47.13935107 -19.79101562 48.80273438 C-19.87821191 52.86851482 -19.93841746 56.93342903 -20 61 C-26.27 61 -32.54 61 -39 61 C-39 41.2 -39 21.4 -39 1 C-33.06 1 -27.12 1 -21 1 C-21 3.31 -21 5.62 -21 8 C-20.34 8 -19.68 8 -19 8 C-18.74347656 7.38640625 -18.48695313 6.7728125 -18.22265625 6.140625 C-14.49135961 -0.39212438 -6.67406994 -0.41712937 0 0 Z " fill="#163F74" transform="translate(803,490)"/>
<path d="M0 0 C5.24569384 3.36262426 10.11528387 7.13564679 15 11 C11.93241949 18.68580611 2.18531163 22.75764849 -5 26 C-5.78375 26.4125 -6.5675 26.825 -7.375 27.25 C-11.67592019 28.47883434 -15.58437954 28.85595104 -20 28 C-23.1855353 26.15702747 -25.48215581 23.65898916 -28 21 C-28.97655543 20.04805228 -29.957299 19.10038871 -30.94140625 18.15625 C-31.96203328 17.16779686 -32.98156938 16.17821601 -34 15.1875 C-34.49363037 14.70756592 -34.98726074 14.22763184 -35.49584961 13.7331543 C-36.70331183 12.52697457 -37.85676742 11.26722288 -39 10 C-39 9.34 -39 8.68 -39 8 C-38.39639648 8.02618408 -37.79279297 8.05236816 -37.17089844 8.0793457 C-22.3635079 8.63681037 -12.79200559 7.77553281 0 0 Z " fill="#203A7A" transform="translate(225,558)"/>
<path d="M0 0 C4.09904549 1.54680962 6.91791532 3.06717339 9 7 C9 8.65 9 10.3 9 12 C0.42 12 -8.16 12 -17 12 C-15.8737819 5.24269142 -15.8737819 5.24269142 -13.0625 3.1875 C-8.60507528 0.0036252 -5.42729248 -0.56597464 0 0 Z " fill="#F3F6F8" transform="translate(844,504)"/>
<path d="M0 0 C1.24523437 0.02707031 2.49046875 0.05414062 3.7734375 0.08203125 C4.71445312 0.11683594 5.65546875 0.15164063 6.625 0.1875 C6.82653374 5.53187617 6.13137209 8.01776021 2.625 12.1875 C-1.27354016 14.5055509 -4.90633621 14.66628541 -9.375 14.1875 C-12.375 12.625 -12.375 12.625 -14.375 10.1875 C-14.5625 6.625 -14.5625 6.625 -13.375 3.1875 C-8.85457821 0.2414553 -5.32572708 -0.15072812 0 0 Z " fill="#EBEFF2" transform="translate(724.375,525.8125)"/>
<path d="M0 0 C1.11761719 0.02707031 1.11761719 0.02707031 2.2578125 0.0546875 C4.08909701 0.10164351 5.91971649 0.17338348 7.75 0.25 C7.96875 6.8984375 7.96875 6.8984375 6 10.0625 C2.62009554 13.34851823 0.42334285 14.35479587 -4.25 14.5625 C-6.84918356 14.47521398 -8.317287 14.22140302 -10.75 13.1875 C-12.25 11.25 -12.25 11.25 -12.75 7.8125 C-12.25 4.25 -12.25 4.25 -10.734375 2.04296875 C-7.25981045 -0.46461793 -4.10670333 -0.18864715 0 0 Z " fill="#ECF1F4" transform="translate(519.25,525.75)"/>
<path d="M0 0 C5.61 0.33 11.22 0.66 17 1 C17 1.33 17 1.66 17 2 C11.555 2.495 11.555 2.495 6 3 C9.73295272 7.53287116 13.38486548 11.37382288 18 15 C17.67 15.99 17.34 16.98 17 18 C11.00040771 13.04381506 5.19144551 7.80773381 0 2 C0 1.34 0 0.68 0 0 Z " fill="#244283" transform="translate(186,566)"/>
<path d="M0 0 C2.31 0 4.62 0 7 0 C6.07347299 1.17539996 5.13336613 2.34010577 4.1875 3.5 C3.66542969 4.1496875 3.14335938 4.799375 2.60546875 5.46875 C1 7 1 7 -2 7 C-1.34 4.69 -0.68 2.38 0 0 Z " fill="#1E487F" transform="translate(617,491)"/>
<path d="M0 0 C-1.375 1.5 -1.375 1.5 -3 3 C-3.66 3 -4.32 3 -5 3 C-5 2.34 -5 1.68 -5 1 C-10.28 1 -15.56 1 -21 1 C-21 0.67 -21 0.34 -21 0 C-18.25034772 -0.19511725 -15.50057868 -0.38136433 -12.75 -0.5625 C-11.97269531 -0.61857422 -11.19539063 -0.67464844 -10.39453125 -0.73242188 C-9.64042969 -0.78076172 -8.88632812 -0.82910156 -8.109375 -0.87890625 C-7.41811523 -0.9260376 -6.72685547 -0.97316895 -6.01464844 -1.02172852 C-3.86382928 -0.99853136 -2.05915129 -0.5995764 0 0 Z " fill="#B69ECA" transform="translate(297,567)"/>
<path d="M0 0 C5.61 0.33 11.22 0.66 17 1 C17 1.33 17 1.66 17 2 C16.25234375 2.06058594 15.5046875 2.12117187 14.734375 2.18359375 C13.74953125 2.26738281 12.7646875 2.35117187 11.75 2.4375 C10.77546875 2.51871094 9.8009375 2.59992187 8.796875 2.68359375 C6.43538247 2.95074584 4.28098935 3.35371968 2 4 C1.34 2.68 0.68 1.36 0 0 Z " fill="#778BAD" transform="translate(186,566)"/>
<path d="M0 0 C0.66 0 1.32 0 2 0 C0.74194623 4.50802601 -0.90407165 7.4912812 -4 11 C-4 6.75611271 -3.11839652 3.11839652 0 0 Z " fill="#273E7A" transform="translate(230,532)"/>
<path d="M0 0 C-1.65 1.65 -3.3 3.3 -5 5 C-6.5 3.625 -6.5 3.625 -8 2 C-8 1.34 -8 0.68 -8 0 C-2.25 -1.125 -2.25 -1.125 0 0 Z " fill="#81CFBE" transform="translate(312,543)"/>
<path d="M0 0 C1.875 0.1875 1.875 0.1875 4 1 C5.25 3.5625 5.25 3.5625 6 6 C5.34 6.66 4.68 7.32 4 8 C0 2.25 0 2.25 0 0 Z " fill="#1C4778" transform="translate(595,537)"/>
<path d="M0 0 C1.28222189 3.03070628 0.98589446 4.03596914 -0.25 7.1875 C-2 10 -2 10 -5 11 C-3.55049545 7.2089881 -1.84827434 3.6125362 0 0 Z " fill="#26477E" transform="translate(208,502)"/>
<path d="M0 0 C0.66 0.33 1.32 0.66 2 1 C0.3125 3.5 0.3125 3.5 -2 6 C-4.75 6.3125 -4.75 6.3125 -7 6 C-4.74259377 3.66475218 -2.7194239 1.81294927 0 0 Z " fill="#6662BF" transform="translate(235,574)"/>
<path d="M0 0 C0.66 0.33 1.32 0.66 2 1 C0.02 2.98 -1.96 4.96 -4 7 C-4.99 6.67 -5.98 6.34 -7 6 C-4.69 4.02 -2.38 2.04 0 0 Z " fill="#254E7E" transform="translate(601,492)"/>
<path d="M0 0 C0.99 0.33 1.98 0.66 3 1 C2.21625 1.61875 1.4325 2.2375 0.625 2.875 C-1.96837647 4.89858661 -1.96837647 4.89858661 -4 7 C-4.66 6.67 -5.32 6.34 -6 6 C-6 5.34 -6 4.68 -6 4 C-3.1875 1.8125 -3.1875 1.8125 0 0 Z " fill="#1CA3A5" transform="translate(224,481)"/>
<path d="M0 0 C2.475 0.99 2.475 0.99 5 2 C5 3.32 5 4.64 5 6 C3.2925002 4.71937515 1.62626404 3.38232443 0 2 C0 1.34 0 0.68 0 0 Z " fill="#1F4A7F" transform="translate(632,538)"/>
<path d="M0 0 C0.33 0.66 0.66 1.32 1 2 C1.66 2.33 2.32 2.66 3 3 C2.1875 4.9375 2.1875 4.9375 1 7 C0.01 7.33 -0.98 7.66 -2 8 C-1.34 5.36 -0.68 2.72 0 0 Z " fill="#375B83" transform="translate(406,500)"/>
<path d="M0 0 C1.32 0.66 2.64 1.32 4 2 C2.35 3.98 0.7 5.96 -1 8 C-2 6 -2 6 -1.0625 2.875 C-0.5365625 1.451875 -0.5365625 1.451875 0 0 Z " fill="#375984" transform="translate(467,474)"/>
</svg>
